{"title":"Fargo S01E06 HDTV x264 AAC [GWC].mp4","uid":10193001,"size":176883696,"categoryP":"video","categoryS":"tv_shows","magnet":"?xt=urn:btih:16b8e262888c0d3c0287105407a6f4bd9c469fa3&amp;dn=Fargo+S01E06+HDTV+x264+AAC+%5BGWC%5D.mp4&amp;tr=udp%3A%2F%2Ftracker.openbittorrent.com%3A80&amp;tr=udp%3A%2F%2Fopen.demonii.com%3A1337&amp;tr=udp%3A%2F%2Ftracker.coppersurfer.tk%3A6969&amp;tr=udp%3A%2F%2Fexodus.desync.com%3A6969","seeders":4,"leechers":0,"uploader":"canc232","files":1,"time":1400661367,"description":"Fargo S01E06 HDTV x264 AAC [GWC] \n\n\nSTORYLINE :\nA drifter named Lorne Malvo arrives in small-town Minnesota and influences the population with his malice and violence, including put-upon insurance salesman Lester Nygaard.\n\n\nSCREENS : &lt;a href=&quot;\nhttp://i.imgur.com/onLDKOC.jpg&quot; rel=&quot;nofollow&quot; target=&quot;_NEW&quot;&gt;\nhttp://i.imgur.com/onLDKOC.jpg&lt;/a&gt; &lt;a href=&quot;\nhttp://i.imgur.com/3lbOVP2.jpg&quot; rel=&quot;nofollow&quot; target=&quot;_NEW&quot;&gt;\nhttp://i.imgur.com/3lbOVP2.jpg&lt;/a&gt; &lt;a href=&quot;\nhttp://i.imgur.com/S5q2RnZ.jpg&quot; rel=&quot;nofollow&quot; target=&quot;_NEW&quot;&gt;\nhttp://i.imgur.com/S5q2RnZ.jpg&lt;/a&gt;\n\n\nMEDIA INFO :\nGeneral \nFormat : MPEG-4 \nFormat profile : Base Media \nFile size : 169 MiB \nDuration : 53mn 14s \nOverall bit rate mode : Variable \nOverall bit rate : 443 Kbps \n\nVideo \nFormat : AVC \nFormat profile : &lt;a class=&quot;__cf_email__&quot; href=&quot;/cdn-cgi/l/email-protection&quot; data-cfemail=&quot;2d65444a456d611e031d&quot;&gt;[email&amp;#160;protected]&lt;/a&gt;&lt;script data-cfhash='f9e31' type=&quot;text/javascript&quot;&gt;\n/* &lt;![CDATA[ */!function(){try{var t=&quot;currentScript&quot;in document?document.currentScript:function(){for(var t=document.getElementsByTagName(&quot;script&quot;),e=t.length;e--;)if(t[e].getAttribute(&quot;data-cfhash&quot;))return t[e]}();if(t&amp;&amp;t.previousSibling){var e,r,n,i,c=t.previousSibling,a=c.getAttribute(&quot;data-cfemail&quot;);if(a){for(e=&quot;&quot;,r=parseInt(a.substr(0,2),16),n=2;a.length-n;n+=2)i=parseInt(a.substr(n,2),16)^r,e+=String.fromCharCode(i);e=document.createTextNode(e),c.parentNode.replaceChild(e,c)}t.parentNode.removeChild(t);}}catch(u){}}()/* ]]&gt; */&lt;/script&gt; \nFormat settings, CABAC : Yes \nFormat settings, ReFrames : 4 frames \nDuration : 53mn 13s \nBit rate : 380 Kbps \nMaximum bit rate : 1 845 Kbps \nWidth : 720 pixels \nHeight : 404 pixels \nDisplay aspect ratio : 16:9 \nFrame rate : 23.976 fps \nStream size : 145 MiB (86%) \nTitle : Fargo S01E06 HDTV x264 AAC [GWC] \nWriting library : x264 core\n\nAudio \nFormat : AAC \nFormat profile : HE-AAC / LC \nDuration : 53mn 14s \nBit rate mode : Variable \nChannel(s) : 2 channels \nSampling rate : 48.0 KHz / 24.0 KHz \nStream size : 22.8 MiB (14%) \nLanguage : English \n\n","torrent":{"xt":"urn:btih:16b8e262888c0d3c0287105407a6f4bd9c469fa3","amp;dn":"Fargo+S01E06+HDTV+x264+AAC+%5BGWC%5D.mp4","amp;tr":["udp%3A%2F%2Ftracker.openbittorrent.com%3A80","udp%3A%2F%2Fopen.demonii.com%3A1337","udp%3A%2F%2Ftracker.coppersurfer.tk%3A6969","udp%3A%2F%2Fexodus.desync.com%3A6969"],"infoHash":"16b8e262888c0d3c0287105407a6f4bd9c469fa3","infoHashBuffer":{"type":"Buffer","data":[22,184,226,98,136,140,13,60,2,135,16,84,7,166,244,189,156,70,159,163]},"announce":[],"urlList":[]}}